<svg width="14" height="23" viewBox="0 0 14 23" fill="none" xmlns="http://www.w3.org/2000/svg">
<path fill-rule="evenodd" clip-rule="evenodd" d="M11.5303 2.53033C11.8232 2.23744 11.8232 1.76256 11.5303 1.46967C11.2374 1.17678 10.7626 1.17678 10.4697 1.46967L1.46967 10.4697C1.25 10.6893 1.19508 11.0114 1.30492 11.2822C1.34153 11.3725 1.39645 11.4571 1.46967 11.5303C1.4698 11.5305 1.46994 11.5306 1.47007 11.5307L11.4697 21.5303C11.7626 21.8232 12.2374 21.8232 12.5303 21.5303C12.8232 21.2374 12.8232 20.7626 12.5303 20.4697L3.06066 11L11.5303 2.53033Z" fill="#B2AEAD"/>
<path d="M11.5303 1.46967L11.1768 1.82322L11.1768 1.82322L11.5303 1.46967ZM11.5303 2.53033L11.1768 2.17678L11.1768 2.17678L11.5303 2.53033ZM10.4697 1.46967L10.8232 1.82322L10.8232 1.82322L10.4697 1.46967ZM1.46967 10.4697L1.82322 10.8232L1.82322 10.8232L1.46967 10.4697ZM1.30492 11.2822L1.76827 11.0943L1.76827 11.0943L1.30492 11.2822ZM1.46967 11.5303L1.11612 11.8839L1.11639 11.8842L1.46967 11.5303ZM1.47007 11.5307L1.82362 11.1772L1.82323 11.1768L1.47007 11.5307ZM11.4697 21.5303L11.1161 21.8839L11.4697 21.5303ZM12.5303 21.5303L12.8839 21.8839L12.8839 21.8839L12.5303 21.5303ZM12.5303 20.4697L12.8839 20.1161L12.8839 20.1161L12.5303 20.4697ZM3.06066 11L2.70711 10.6464L2.35355 11L2.70711 11.3536L3.06066 11ZM11.1768 1.82322C11.2744 1.92085 11.2744 2.07915 11.1768 2.17678L11.8839 2.88388C12.372 2.39573 12.372 1.60427 11.8839 1.11612L11.1768 1.82322ZM10.8232 1.82322C10.9209 1.72559 11.0791 1.72559 11.1768 1.82322L11.8839 1.11612C11.3957 0.627961 10.6043 0.627961 10.1161 1.11612L10.8232 1.82322ZM1.82322 10.8232L10.8232 1.82322L10.1161 1.11612L1.11612 10.1161L1.82322 10.8232ZM1.76827 11.0943C1.73125 11.003 1.75055 10.8959 1.82322 10.8232L1.11612 10.1161C0.749446 10.4828 0.658913 11.0197 0.841566 11.4701L1.76827 11.0943ZM1.82322 11.1768C1.79816 11.1517 1.78019 11.1237 1.76827 11.0943L0.841565 11.4701C0.902868 11.6213 0.994729 11.7625 1.11612 11.8839L1.82322 11.1768ZM1.82323 11.1768C1.82314 11.1767 1.82304 11.1766 1.82295 11.1765L1.11639 11.8842C1.11657 11.8843 1.11674 11.8845 1.11691 11.8847L1.82323 11.1768ZM11.8232 21.1768L1.82362 11.1772L1.11652 11.8843L11.1161 21.8839L11.8232 21.1768ZM12.1768 21.1768C12.0791 21.2744 11.9209 21.2744 11.8232 21.1768L11.1161 21.8839C11.6043 22.372 12.3957 22.372 12.8839 21.8839L12.1768 21.1768ZM12.1768 20.8232C12.2744 20.9209 12.2744 21.0791 12.1768 21.1768L12.8839 21.8839C13.372 21.3957 13.372 20.6043 12.8839 20.1161L12.1768 20.8232ZM2.70711 11.3536L12.1768 20.8232L12.8839 20.1161L3.41421 10.6464L2.70711 11.3536ZM11.1768 2.17678L2.70711 10.6464L3.41421 11.3536L11.8839 2.88388L11.1768 2.17678Z" fill="#B2AEAD"/>
</svg>
