<svg width="62" height="57" viewBox="0 0 62 57" fill="none" xmlns="http://www.w3.org/2000/svg">
<path d="M31.0307 55L55.2858 30.5421C57.5763 28.2324 59.192 25.304 59.7237 22.1076C60.0509 20.1279 60.1532 17.7975 59.6624 15.261C58.1081 7.21836 50.8888 1.23792 42.8106 2.08343C38.7408 2.5165 34.3029 4.66121 31.0511 10.786C31.0511 10.8272 30.9898 10.8272 30.9693 10.786C27.7176 4.66121 23.2797 2.49588 19.2099 2.08343C11.1112 1.2173 3.89193 7.19774 2.33764 15.2404C1.84681 17.7769 1.94906 20.1279 2.27628 22.087C2.82846 25.304 4.42366 28.2324 6.71419 30.5214L30.9693 54.9794C30.9693 54.9794 31.0307 54.9794 31.0511 54.9794L31.0307 55Z" fill="#FF3E00" stroke="#F04923" stroke-width="3" stroke-miterlimit="10"/>
</svg>
