<svg width="199" height="84" viewBox="0 0 199 84" fill="none" xmlns="http://www.w3.org/2000/svg">
<g clip-path="url(#clip0_500_1302)">
<path d="M27.8288 73.788C22.6954 75.8025 17.5342 77.7059 12.2893 79.401C12.373 79.401 12.4288 79.401 12.5125 79.401H28.4425L96.3893 55.0596L55.3227 61.131C53.6767 62.048 52.0307 62.9372 50.3708 63.8125C43.0614 67.5915 35.459 70.7314 27.8288 73.788Z" fill="#FB8500"/>
<path d="M33.0736 61.1455C29.3213 61.1455 27.4521 59.6172 27.4521 56.6162C27.4521 56.2828 27.5916 55.7548 27.7868 55.0879L39.6995 18.5342H25.0388L7.08616 73.3579C6.94667 73.9553 6.89087 74.5527 6.89087 75.0946C6.89087 76.6089 7.43489 77.7204 8.46713 78.4429C19.1523 71.899 30.3256 66.1471 41.8198 61.1594H33.0736V61.1455Z" fill="#FB8500"/>
<path d="M49.5478 55.074L61.3907 18.5342H46.6603L34.8035 55.074H49.5478Z" fill="#FB8500"/>
<path d="M66.2449 55.0741H84.3649L89.9167 44.4873C83.8767 46.7797 77.9064 49.1972 72.1175 52.0593C70.1367 53.0179 68.1978 54.0321 66.2588 55.0741H66.2449Z" fill="#FB8500"/>
<path d="M92.4556 39.6245L103.503 18.5342H88.8985L77.2509 42.8756L81.603 18.5342H66.8726L62.5344 53.3235C65.4359 52.2815 68.3234 51.2255 71.1551 50.0307C78.4645 47.0436 85.4809 43.3896 92.4416 39.6245H92.4556Z" fill="#FB8500"/>
<path d="M116.379 61.1456C112.626 61.1456 110.757 59.7424 110.757 56.9498C110.757 56.2134 110.827 55.5466 111.022 55.0881L116.881 37.1377L96.3893 55.0881L90.4608 73.358C90.2655 73.6914 90.1958 74.1638 90.1958 74.7612C90.1958 76.6091 91.3117 78.2902 93.3623 79.0404L144.961 70.7738L148.113 61.1595H116.392L116.379 61.1456Z" fill="#FB8500"/>
<path d="M134.094 30.7325L126.52 30.1768L126.338 30.7325H125.167C122.753 31.7467 120.34 32.7609 117.927 33.7335C112.445 36.1093 106.837 38.2211 101.23 40.2912L96.4033 55.0739H111.064L116.951 36.804H132.072L134.08 30.7325H134.094Z" fill="#FB8500"/>
<path d="M120.884 24.9669L122.935 18.5342H108.344L103.392 33.7198C103.657 33.5808 103.922 33.428 104.201 33.2891C109.739 30.4687 115.304 27.69 120.898 24.9669H120.884Z" fill="#FB8500"/>
<path d="M130.286 18.5342L129.533 20.8544C131.221 20.0625 132.922 19.2983 134.624 18.5342H130.286Z" fill="#FB8500"/>
<path d="M129.351 55.0733H144.082L155.939 18.5195H141.961C141.668 18.6724 141.362 18.8113 141.069 18.9502L129.351 55.0594V55.0733Z" fill="#FB8500"/>
<path d="M170.083 61.1447C166.261 61.1447 164.322 59.8804 164.322 57.3379C164.322 56.7405 164.462 55.9347 164.727 55.0733L174.7 24.6605H181.926L184.005 18.5195H154.613L152.674 24.6605H160.04L148.099 61.1447H150.945L147.988 70.2172L199 61.1447H170.083Z" fill="#FB8500"/>
<path d="M148.099 61.1455L144.961 70.7598L147.988 70.218L150.945 61.1455H148.099Z" fill="#FB8500"/>
<path d="M183.963 0.319329L143.635 18.5337H144.961L143.663 22.5072C146.104 21.3541 148.546 20.1731 150.973 18.9783L151.112 18.5476H151.866C162.871 13.0874 173.64 7.15492 184.102 0.652772L183.809 0.0136719C167.949 4.70967 152.647 10.7533 137.484 17.2416C136.521 17.6723 135.573 18.1169 134.624 18.5476H143.622L183.963 0.319329Z" fill="#FB8500"/>
<path d="M102.234 37.2211L103.378 33.7061C99.7372 35.6511 96.1104 37.6379 92.4696 39.6108L91.0886 42.2505L102.248 37.2072L102.234 37.2211Z" fill="#FB8500"/>
<path d="M0.139404 83.6807C0.209151 83.8335 0.278897 84.0002 0.278897 84.0002C2.9432 83.2778 9.66674 80.2629 12.2753 79.4154C11.257 79.4015 10.4061 79.2626 9.68069 79.0264L0.139404 83.6807Z" fill="#FB8500"/>
<path d="M49.2688 61.1457H55.3367C58.9775 59.1311 62.5903 57.0471 66.245 55.0742H62.7019L49.2688 61.1457Z" fill="#FB8500"/>
<path d="M91.0746 42.2638L89.9028 44.5007C93.6691 43.0696 97.4494 41.6942 101.23 40.3048L102.234 37.2344L91.0746 42.2777V42.2638Z" fill="#FB8500"/>
<path d="M62.7019 55.074H62.3252L62.5484 53.3096C57.6941 55.0463 52.7839 56.6857 47.9714 58.5474C45.907 59.3949 43.8564 60.2563 41.8198 61.1455H49.2687L62.7019 55.074Z" fill="#FB8500"/>
<path d="M8.46719 78.4287C7.00252 79.3179 1.43677 82.43 0 83.3609C0 83.3609 0.0697462 83.5137 0.139492 83.6804L9.68078 79.0261C9.22045 78.8733 8.81593 78.6788 8.46719 78.4426V78.4287Z" fill="#FB8500"/>
<path d="M62.7018 55.0736L91.0746 42.2638L92.4556 39.624C85.4949 43.3753 78.4784 47.0292 71.169 50.0302C68.3373 51.2251 65.4498 52.281 62.5484 53.323L62.3252 55.0875H62.7018V55.0736Z" fill="#FB8500"/>
<path d="M62.7019 55.0737H66.245C68.184 54.0317 70.1229 53.0175 72.1037 52.0588C77.8926 49.2106 83.8629 46.7793 89.9029 44.4869L91.0747 42.25L62.7019 55.0598V55.0737Z" fill="#FB8500"/>
<path d="M144.961 18.5342H143.636L128.012 25.5782L126.52 30.1769L143.663 22.4938L144.961 18.5342Z" fill="#FB8500"/>
<path d="M134.638 18.5342C132.936 19.2983 131.234 20.0625 129.547 20.8544L128.012 25.5921L143.635 18.5342H134.638Z" fill="#FB8500"/>
<path d="M150.973 18.9649C151.266 18.812 151.572 18.6731 151.865 18.5342H151.112L150.973 18.9649Z" fill="#FB8500"/>
<path d="M126.52 30.1763C132.281 27.731 138 25.1746 143.663 22.4932L126.52 30.1763Z" fill="#FB8500"/>
<path d="M139.255 36.8037H139.004L138.893 37.1233L139.255 36.8037Z" fill="#FB8500"/>
</g>
<defs>
<clipPath id="clip0_500_1302">
<rect width="199" height="84" fill="white"/>
</clipPath>
</defs>
</svg>
