<svg width="199" height="84" viewBox="0 0 199 84" fill="none" xmlns="http://www.w3.org/2000/svg">
<g clip-path="url(#clip0_305_1050)">
<path d="M27.8288 73.7885C22.6954 75.803 17.5342 77.7064 12.2893 79.4014C12.373 79.4014 12.4288 79.4014 12.5125 79.4014H28.4425L96.3893 55.0601L55.3227 61.1315C53.6767 62.0485 52.0307 62.9377 50.3708 63.813C43.0614 67.592 35.459 70.7319 27.8288 73.7885Z" fill="#FF643B"/>
<path d="M33.0736 61.145C29.3213 61.145 27.4521 59.6167 27.4521 56.6157C27.4521 56.2823 27.5916 55.7543 27.7868 55.0874L39.6995 18.5337H25.0388L7.08616 73.3574C6.94667 73.9548 6.89087 74.5522 6.89087 75.0941C6.89087 76.6085 7.43489 77.7199 8.46713 78.4424C19.1523 71.8986 30.3256 66.1467 41.8198 61.1589H33.0736V61.145Z" fill="#FF643B"/>
<path d="M49.5478 55.0736L61.3907 18.5337H46.6603L34.8035 55.0736H49.5478Z" fill="#FF643B"/>
<path d="M66.2449 55.0736H84.3649L89.9167 44.4868C83.8767 46.7792 77.9064 49.1967 72.1175 52.0588C70.1367 53.0174 68.1978 54.0316 66.2588 55.0736H66.2449Z" fill="#FF643B"/>
<path d="M92.4556 39.624L103.503 18.5337H88.8985L77.2509 42.8751L81.603 18.5337H66.8726L62.5344 53.323C65.4359 52.281 68.3234 51.2251 71.1551 50.0302C78.4645 47.0431 85.4809 43.3891 92.4416 39.624H92.4556Z" fill="#FF643B"/>
<path d="M116.379 61.1451C112.626 61.1451 110.757 59.7419 110.757 56.9493C110.757 56.213 110.827 55.5461 111.022 55.0876L116.881 37.1372L96.3893 55.0876L90.4608 73.3575C90.2655 73.691 90.1958 74.1633 90.1958 74.7608C90.1958 76.6086 91.3117 78.2897 93.3623 79.04L144.961 70.7733L148.113 61.159H116.392L116.379 61.1451Z" fill="#FF643B"/>
<path d="M134.094 30.7325L126.52 30.1768L126.338 30.7325H125.167C122.753 31.7467 120.34 32.7609 117.927 33.7335C112.445 36.1093 106.837 38.2211 101.23 40.2912L96.4033 55.0739H111.064L116.951 36.804H132.072L134.08 30.7325H134.094Z" fill="#FF643B"/>
<path d="M120.884 24.9664L122.935 18.5337H108.344L103.392 33.7193C103.657 33.5803 103.922 33.4275 104.201 33.2886C109.739 30.4682 115.304 27.6895 120.898 24.9664H120.884Z" fill="#FF643B"/>
<path d="M130.286 18.5337L129.533 20.8539C131.221 20.062 132.922 19.2978 134.624 18.5337H130.286Z" fill="#FF643B"/>
<path d="M129.351 55.0738H144.082L155.939 18.52H141.961C141.668 18.6728 141.362 18.8118 141.069 18.9507L129.351 55.0599V55.0738Z" fill="#FF643B"/>
<path d="M170.083 61.1452C166.261 61.1452 164.322 59.8809 164.322 57.3384C164.322 56.741 164.462 55.9352 164.727 55.0738L174.7 24.6609H181.926L184.005 18.52H154.613L152.674 24.6609H160.04L148.099 61.1452H150.945L147.988 70.2177L199 61.1452H170.083Z" fill="#FF643B"/>
<path d="M148.099 61.145L144.961 70.7593L147.988 70.2175L150.945 61.145H148.099Z" fill="#FF643B"/>
<path d="M183.963 0.319329L143.635 18.5337H144.961L143.663 22.5072C146.104 21.3541 148.546 20.1731 150.973 18.9783L151.112 18.5476H151.866C162.871 13.0874 173.64 7.15492 184.102 0.652772L183.809 0.0136719C167.949 4.70967 152.647 10.7533 137.484 17.2416C136.521 17.6723 135.573 18.1169 134.624 18.5476H143.622L183.963 0.319329Z" fill="#FF643B"/>
<path d="M102.234 37.2206L103.378 33.7056C99.7372 35.6507 96.1104 37.6374 92.4696 39.6103L91.0886 42.2501L102.248 37.2067L102.234 37.2206Z" fill="#FF643B"/>
<path d="M0.139404 83.6807C0.209151 83.8335 0.278897 84.0002 0.278897 84.0002C2.9432 83.2778 9.66674 80.2629 12.2753 79.4154C11.257 79.4015 10.4061 79.2626 9.68069 79.0264L0.139404 83.6807Z" fill="#FF643B"/>
<path d="M49.2688 61.1452H55.3367C58.9775 59.1306 62.5903 57.0466 66.245 55.0737H62.7019L49.2688 61.1452Z" fill="#FF643B"/>
<path d="M91.0746 42.2638L89.9028 44.5007C93.6691 43.0696 97.4494 41.6942 101.23 40.3048L102.234 37.2344L91.0746 42.2777V42.2638Z" fill="#FF643B"/>
<path d="M62.7019 55.0736H62.3252L62.5484 53.3091C57.6941 55.0458 52.7839 56.6852 47.9714 58.5469C45.907 59.3944 43.8564 60.2558 41.8198 61.145H49.2687L62.7019 55.0736Z" fill="#FF643B"/>
<path d="M8.46719 78.4287C7.00252 79.3179 1.43677 82.43 0 83.3609C0 83.3609 0.0697462 83.5137 0.139492 83.6804L9.68078 79.0261C9.22045 78.8733 8.81593 78.6788 8.46719 78.4426V78.4287Z" fill="#FF643B"/>
<path d="M62.7018 55.0736L91.0746 42.2638L92.4556 39.624C85.4949 43.3753 78.4784 47.0292 71.169 50.0302C68.3373 51.2251 65.4498 52.281 62.5484 53.323L62.3252 55.0875H62.7018V55.0736Z" fill="#FF643B"/>
<path d="M62.7019 55.0737H66.245C68.184 54.0317 70.1229 53.0175 72.1037 52.0588C77.8926 49.2106 83.8629 46.7793 89.9029 44.4869L91.0747 42.25L62.7019 55.0598V55.0737Z" fill="#FF643B"/>
<path d="M144.961 18.5337H143.636L128.012 25.5777L126.52 30.1764L143.663 22.4933L144.961 18.5337Z" fill="#FF643B"/>
<path d="M134.638 18.5337C132.936 19.2978 131.234 20.062 129.547 20.8539L128.012 25.5916L143.635 18.5337H134.638Z" fill="#FF643B"/>
<path d="M150.973 18.9644C151.266 18.8116 151.572 18.6726 151.865 18.5337H151.112L150.973 18.9644Z" fill="#FF643B"/>
<path d="M126.52 30.1767C132.281 27.7315 138 25.1751 143.663 22.4937L126.52 30.1767Z" fill="#FF643B"/>
<path d="M139.255 36.8037H139.004L138.893 37.1233L139.255 36.8037Z" fill="#FF643B"/>
</g>
<defs>
<clipPath id="clip0_305_1050">
<rect width="199" height="84" fill="white"/>
</clipPath>
</defs>
</svg>
